<svg style="position: absolute; width: 0; height: 0;" width="0" height="0" version="1.1" xmlns="http://www.w3.org/2000/svg" xmlns:xlink="http://www.w3.org/1999/xlink">
<defs>
<symbol id="bridge" viewBox="0 0 106.6 33.8">
    <title>Cable bridge reminiscent of a smile</title>
    <path d="m106.1 27.2c-0.6 0-1.1 0-1.6-0.1h-0.1-0.2-0.4l-0.5-0.1c-1.6-0.2-3.3-0.6-4.9-1.1-14.9-5.2-17.8-25.3-17.9-25.5 0-0.2-0.2-0.4-0.5-0.4-0.2 0-0.4 0.1-0.5 0.3s-7 21-26.3 21c-19.6 0-25.2-16.8-26.1-20.1 0-0.2-0.1-0.5-0.1-0.7 0-0.3-0.2-0.5-0.5-0.5h-0.1-0.1c-0.3 0-0.4 0.2-0.4 0.5v0.5 0.1c-0.6 3.4-4.3 20-17.7 24.8-1.6 0.5-3.2 0.9-4.8 1.1h-0.2-0.1-0.2-0.4-0.3c-0.5 0-1.1 0.1-1.6 0.1-0.3 0-0.5 0.2-0.5 0.5s0.2 0.5 0.5 0.5c0.6 0 1.1 0 1.7-0.1h0.3 0.4 0.2 0.2 0.2c1.8-0.2 3.5-0.6 5.1-1.1 7.2-2.4 13.5-8.1 16.8-15.1l0.8 21.6c0 0.3 0.2 0.5 0.5 0.5h0.7c0.3 0 0.5-0.2 0.5-0.5v-23.4c4 10.5 14.5 18.2 25.2 18.2 10.4 0 20.3-6.8 24.8-16.9v21.6c0 0.3 0.2 0.5 0.5 0.5h0.7c0.3 0 0.5-0.2 0.5-0.5l0.9-22.7c3 7.6 9.6 14 17.4 16.6 1.6 0.5 3.3 0.9 5.1 1.1h0.2 0.2 0.2 0.4 0.4c0.6 0 1.1 0.1 1.7 0.1 0.3 0 0.5-0.2 0.5-0.5-0.1-0.1-0.3-0.3-0.6-0.3z"/>
</symbol>
</svg>
